<?xml version="1.0" encoding="UTF-8" standalone="no"?>
<svg
   width="64"
   height="64"
   version="1.1"
   id="svg1"
   sodipodi:docname="icon-x-dark-navy.svg"
   inkscape:version="1.3.2 (091e20e, 2023-11-25, custom)"
   xmlns:inkscape="http://www.inkscape.org/namespaces/inkscape"
   xmlns:sodipodi="http://sodipodi.sourceforge.net/DTD/sodipodi-0.dtd"
   xmlns="http://www.w3.org/2000/svg"
   xmlns:svg="http://www.w3.org/2000/svg">
  <defs
     id="defs1" />
  <sodipodi:namedview
     id="namedview1"
     pagecolor="#ffffff"
     bordercolor="#000000"
     borderopacity="0.25"
     inkscape:showpageshadow="2"
     inkscape:pageopacity="0.0"
     inkscape:pagecheckerboard="0"
     inkscape:deskcolor="#d1d1d1"
     inkscape:zoom="12.828125"
     inkscape:cx="32"
     inkscape:cy="31.844093"
     inkscape:window-width="1920"
     inkscape:window-height="1017"
     inkscape:window-x="-8"
     inkscape:window-y="-8"
     inkscape:window-maximized="1"
     inkscape:current-layer="svg1" />
  <path
     d="M15.002 1.147 32 18.145 48.998 1.147a3 3 0 0 1 4.243 0l9.612 9.612a3 3 0 0 1 0 4.243L45.855 32l16.998 16.998a3 3 0 0 1 0 4.243l-9.612 9.612a3 3 0 0 1-4.243 0L32 45.855 15.002 62.853a3 3 0 0 1-4.243 0L1.147 53.24a3 3 0 0 1 0-4.243L18.145 32 1.147 15.002a3 3 0 0 1 0-4.243l9.612-9.612a3 3 0 0 1 4.243 0Z"
     fill="#31C3BD"
     fill-rule="evenodd"
     id="path1"
     style="fill:#1a2a33;fill-opacity:1" />
</svg>
